<svg xmlns="http://www.w3.org/2000/svg" xmlns:xlink="http://www.w3.org/1999/xlink" width="90" zoomAndPan="magnify" viewBox="0 0 67.5 37.5" height="50" preserveAspectRatio="xMidYMid meet" version="1.0"><defs><g/><clipPath id="5edf9c7e53"><path d="M 0.199219 7 L 14 7 L 14 23 L 0.199219 23 Z M 0.199219 7 " clip-rule="nonzero"/></clipPath><clipPath id="9904beea8d"><path d="M 51 7 L 66.808594 7 L 66.808594 23 L 51 23 Z M 51 7 " clip-rule="nonzero"/></clipPath><clipPath id="91d884f602"><path d="M 26.539062 23.128906 L 66.808594 23.128906 L 66.808594 26.832031 L 26.539062 26.832031 Z M 26.539062 23.128906 " clip-rule="nonzero"/></clipPath></defs><g clip-path="url(#5edf9c7e53)"><g fill="#ffffff" fill-opacity="1"><g transform="translate(0.521176, 22.203947)"><g><path d="M 8.703125 -2.96875 C 9.203125 -2.96875 9.6875 -3.039062 10.15625 -3.1875 C 10.625 -3.34375 10.96875 -3.488281 11.1875 -3.625 L 11.53125 -3.859375 L 12.921875 -1.0625 C 12.867188 -1.03125 12.800781 -0.984375 12.71875 -0.921875 C 12.644531 -0.867188 12.457031 -0.757812 12.15625 -0.59375 C 11.863281 -0.4375 11.546875 -0.300781 11.203125 -0.1875 C 10.867188 -0.0703125 10.425781 0.03125 9.875 0.125 C 9.332031 0.21875 8.773438 0.265625 8.203125 0.265625 C 6.859375 0.265625 5.585938 -0.0625 4.390625 -0.71875 C 3.191406 -1.375 2.226562 -2.273438 1.5 -3.421875 C 0.769531 -4.578125 0.40625 -5.828125 0.40625 -7.171875 C 0.40625 -8.179688 0.617188 -9.148438 1.046875 -10.078125 C 1.472656 -11.003906 2.046875 -11.800781 2.765625 -12.46875 C 3.484375 -13.132812 4.316406 -13.660156 5.265625 -14.046875 C 6.222656 -14.441406 7.203125 -14.640625 8.203125 -14.640625 C 9.128906 -14.640625 9.984375 -14.53125 10.765625 -14.3125 C 11.546875 -14.09375 12.101562 -13.875 12.4375 -13.65625 L 12.921875 -13.328125 L 11.53125 -10.53125 C 11.445312 -10.601562 11.320312 -10.6875 11.15625 -10.78125 C 11 -10.882812 10.675781 -11.015625 10.1875 -11.171875 C 9.695312 -11.335938 9.203125 -11.421875 8.703125 -11.421875 C 7.910156 -11.421875 7.195312 -11.289062 6.5625 -11.03125 C 5.9375 -10.78125 5.441406 -10.445312 5.078125 -10.03125 C 4.710938 -9.613281 4.429688 -9.160156 4.234375 -8.671875 C 4.046875 -8.191406 3.953125 -7.703125 3.953125 -7.203125 C 3.953125 -6.109375 4.363281 -5.128906 5.1875 -4.265625 C 6.007812 -3.398438 7.179688 -2.96875 8.703125 -2.96875 Z M 8.703125 -2.96875 "/></g></g></g></g><g fill="#ffffff" fill-opacity="1"><g transform="translate(13.644326, 22.203947)"><g><path d="M 1.65625 -1.09375 C 0.820312 -2.007812 0.40625 -3.128906 0.40625 -4.453125 C 0.40625 -5.785156 0.820312 -6.910156 1.65625 -7.828125 C 2.488281 -8.742188 3.550781 -9.203125 4.84375 -9.203125 C 6.03125 -9.203125 7.007812 -8.832031 7.78125 -8.09375 L 7.78125 -8.953125 L 10.859375 -8.953125 L 10.859375 0 L 7.8125 0 L 7.8125 -1.015625 L 7.78125 -1.015625 C 7.007812 -0.160156 6.03125 0.265625 4.84375 0.265625 C 3.550781 0.265625 2.488281 -0.1875 1.65625 -1.09375 Z M 4.265625 -5.984375 C 3.867188 -5.585938 3.671875 -5.082031 3.671875 -4.46875 C 3.671875 -3.851562 3.863281 -3.347656 4.25 -2.953125 C 4.632812 -2.566406 5.140625 -2.375 5.765625 -2.375 C 6.367188 -2.375 6.863281 -2.570312 7.25 -2.96875 C 7.644531 -3.363281 7.84375 -3.863281 7.84375 -4.46875 C 7.84375 -5.082031 7.640625 -5.585938 7.234375 -5.984375 C 6.835938 -6.378906 6.347656 -6.578125 5.765625 -6.578125 C 5.171875 -6.578125 4.671875 -6.378906 4.265625 -5.984375 Z M 4.265625 -5.984375 "/></g></g></g><g fill="#ffffff" fill-opacity="1"><g transform="translate(25.547529, 22.203947)"><g><path d="M 1.046875 0 L 1.046875 -8.953125 L 4.125 -8.953125 L 4.125 -7.65625 L 4.171875 -7.65625 C 4.191406 -7.695312 4.226562 -7.753906 4.28125 -7.828125 C 4.332031 -7.898438 4.441406 -8.019531 4.609375 -8.1875 C 4.785156 -8.363281 4.972656 -8.519531 5.171875 -8.65625 C 5.367188 -8.800781 5.625 -8.925781 5.9375 -9.03125 C 6.257812 -9.144531 6.582031 -9.203125 6.90625 -9.203125 C 7.238281 -9.203125 7.566406 -9.15625 7.890625 -9.0625 C 8.222656 -8.96875 8.460938 -8.875 8.609375 -8.78125 L 8.859375 -8.65625 L 7.5625 -6.03125 C 7.1875 -6.351562 6.65625 -6.515625 5.96875 -6.515625 C 5.59375 -6.515625 5.269531 -6.429688 5 -6.265625 C 4.738281 -6.109375 4.550781 -5.910156 4.4375 -5.671875 C 4.320312 -5.441406 4.238281 -5.242188 4.1875 -5.078125 C 4.144531 -4.921875 4.125 -4.796875 4.125 -4.703125 L 4.125 0 Z M 1.046875 0 "/></g></g></g><g fill="#c6c7d5" fill-opacity="1"><g transform="translate(34.231855, 22.203947)"><g><path d="M 12.109375 -14.390625 L 12.109375 -5.109375 C 12.109375 -3.335938 11.628906 -2 10.671875 -1.09375 C 9.710938 -0.1875 8.316406 0.265625 6.484375 0.265625 C 4.648438 0.265625 3.253906 -0.1875 2.296875 -1.09375 C 1.347656 -2 0.875 -3.335938 0.875 -5.109375 L 0.875 -14.390625 L 4.15625 -14.390625 L 4.15625 -6.0625 C 4.15625 -4.90625 4.335938 -4.097656 4.703125 -3.640625 C 5.066406 -3.191406 5.660156 -2.96875 6.484375 -2.96875 C 7.304688 -2.96875 7.898438 -3.191406 8.265625 -3.640625 C 8.640625 -4.097656 8.828125 -4.90625 8.828125 -6.0625 L 8.828125 -14.390625 Z M 12.109375 -14.390625 "/></g></g></g><g fill="#c6c7d5" fill-opacity="1"><g transform="translate(47.198161, 22.203947)"><g><path d="M 4.328125 -14.390625 L 4.328125 0 L 1.046875 0 L 1.046875 -14.390625 Z M 4.328125 -14.390625 "/></g></g></g><g clip-path="url(#9904beea8d)"><g fill="#c6c7d5" fill-opacity="1"><g transform="translate(52.565933, 22.203947)"><g><path d="M 14.515625 0 L 10.265625 0 L 6.875 -4.90625 L 3.46875 0 L -0.59375 0 L 4.84375 -7.75 L 0.3125 -14.390625 L 4.21875 -14.390625 L 6.875 -10.46875 L 9.515625 -14.390625 L 13.59375 -14.390625 L 8.890625 -7.75 Z M 14.515625 0 "/></g></g></g></g><g clip-path="url(#91d884f602)"><path fill="#c6c7d5" d="M 26.539062 23.128906 L 66.8125 23.128906 L 66.8125 26.832031 L 26.539062 26.832031 Z M 26.539062 23.128906 " fill-opacity="1" fill-rule="nonzero"/></g></svg>