<svg xmlns="http://www.w3.org/2000/svg" xmlns:xlink="http://www.w3.org/1999/xlink" width="1280" zoomAndPan="magnify" viewBox="0 0 960 225" height="300" preserveAspectRatio="xMidYMid meet" version="1.0"><defs><g/><clipPath id="10d5024fe9"><path d="M 446.96875 132.464844 L 623.707031 132.464844 L 623.707031 143.34375 L 446.96875 143.34375 Z M 446.96875 132.464844 " clip-rule="nonzero"/></clipPath></defs><g fill="#c6c7d5" fill-opacity="1"><g transform="translate(336.304819, 132.000005)"><g><path d="M 37.5625 -12.796875 C 39.71875 -12.796875 41.8125 -13.117188 43.84375 -13.765625 C 45.875 -14.421875 47.367188 -15.050781 48.328125 -15.65625 L 49.75 -16.640625 L 55.765625 -4.59375 C 55.566406 -4.4375 55.289062 -4.234375 54.9375 -3.984375 C 54.59375 -3.734375 53.78125 -3.269531 52.5 -2.59375 C 51.21875 -1.914062 49.847656 -1.328125 48.390625 -0.828125 C 46.941406 -0.328125 45.035156 0.117188 42.671875 0.515625 C 40.316406 0.921875 37.882812 1.125 35.375 1.125 C 29.601562 1.125 24.132812 -0.289062 18.96875 -3.125 C 13.800781 -5.957031 9.632812 -9.859375 6.46875 -14.828125 C 3.3125 -19.796875 1.734375 -25.164062 1.734375 -30.9375 C 1.734375 -35.300781 2.660156 -39.488281 4.515625 -43.5 C 6.367188 -47.519531 8.835938 -50.957031 11.921875 -53.8125 C 15.015625 -56.675781 18.617188 -58.957031 22.734375 -60.65625 C 26.847656 -62.363281 31.0625 -63.21875 35.375 -63.21875 C 39.382812 -63.21875 43.082031 -62.738281 46.46875 -61.78125 C 49.863281 -60.832031 52.265625 -59.882812 53.671875 -58.9375 L 55.765625 -57.5 L 49.75 -45.453125 C 49.394531 -45.753906 48.863281 -46.117188 48.15625 -46.546875 C 47.457031 -46.972656 46.054688 -47.535156 43.953125 -48.234375 C 41.847656 -48.941406 39.71875 -49.296875 37.5625 -49.296875 C 34.144531 -49.296875 31.082031 -48.742188 28.375 -47.640625 C 25.664062 -46.535156 23.519531 -45.078125 21.9375 -43.265625 C 20.351562 -41.460938 19.144531 -39.519531 18.3125 -37.4375 C 17.488281 -35.363281 17.078125 -33.242188 17.078125 -31.078125 C 17.078125 -26.367188 18.847656 -22.144531 22.390625 -18.40625 C 25.929688 -14.664062 30.988281 -12.796875 37.5625 -12.796875 Z M 37.5625 -12.796875 "/></g></g></g><g fill="#c6c7d5" fill-opacity="1"><g transform="translate(392.973922, 132.000005)"><g><path d="M 7.140625 -4.78125 C 3.535156 -8.71875 1.734375 -13.546875 1.734375 -19.265625 C 1.734375 -24.984375 3.535156 -29.820312 7.140625 -33.78125 C 10.753906 -37.75 15.347656 -39.734375 20.921875 -39.734375 C 26.035156 -39.734375 30.25 -38.128906 33.5625 -34.921875 L 33.5625 -38.609375 L 46.890625 -38.609375 L 46.890625 0 L 33.71875 0 L 33.71875 -4.359375 L 33.5625 -4.359375 C 30.25 -0.703125 26.035156 1.125 20.921875 1.125 C 15.347656 1.125 10.753906 -0.84375 7.140625 -4.78125 Z M 18.46875 -25.8125 C 16.738281 -24.101562 15.875 -21.921875 15.875 -19.265625 C 15.875 -16.609375 16.703125 -14.4375 18.359375 -12.75 C 20.015625 -11.070312 22.195312 -10.234375 24.90625 -10.234375 C 27.519531 -10.234375 29.664062 -11.085938 31.34375 -12.796875 C 33.03125 -14.503906 33.875 -16.660156 33.875 -19.265625 C 33.875 -21.921875 33.003906 -24.101562 31.265625 -25.8125 C 29.535156 -27.519531 27.414062 -28.375 24.90625 -28.375 C 22.351562 -28.375 20.207031 -27.519531 18.46875 -25.8125 Z M 18.46875 -25.8125 "/></g></g></g><g fill="#c6c7d5" fill-opacity="1"><g transform="translate(444.374978, 132.000005)"><g><path d="M 4.515625 0 L 4.515625 -38.609375 L 17.84375 -38.609375 L 17.84375 -33.046875 L 17.984375 -33.046875 C 18.085938 -33.242188 18.25 -33.492188 18.46875 -33.796875 C 18.695312 -34.097656 19.1875 -34.625 19.9375 -35.375 C 20.695312 -36.125 21.503906 -36.800781 22.359375 -37.40625 C 23.210938 -38.007812 24.316406 -38.546875 25.671875 -39.015625 C 27.023438 -39.492188 28.40625 -39.734375 29.8125 -39.734375 C 31.257812 -39.734375 32.6875 -39.53125 34.09375 -39.125 C 35.5 -38.726562 36.53125 -38.332031 37.1875 -37.9375 L 38.234375 -37.328125 L 32.671875 -26.046875 C 31.015625 -27.453125 28.703125 -28.15625 25.734375 -28.15625 C 24.128906 -28.15625 22.75 -27.800781 21.59375 -27.09375 C 20.445312 -26.394531 19.632812 -25.539062 19.15625 -24.53125 C 18.675781 -23.53125 18.335938 -22.675781 18.140625 -21.96875 C 17.941406 -21.269531 17.84375 -20.722656 17.84375 -20.328125 L 17.84375 0 Z M 4.515625 0 "/></g></g></g><g fill="#f7f7f7" fill-opacity="1"><g transform="translate(481.863407, 132.000005)"><g><path d="M 52.234375 -62.09375 L 52.234375 -22.046875 C 52.234375 -14.421875 50.175781 -8.648438 46.0625 -4.734375 C 41.945312 -0.828125 35.925781 1.125 28 1.125 C 20.070312 1.125 14.050781 -0.828125 9.9375 -4.734375 C 5.820312 -8.648438 3.765625 -14.421875 3.765625 -22.046875 L 3.765625 -62.09375 L 17.90625 -62.09375 L 17.90625 -26.1875 C 17.90625 -21.175781 18.695312 -17.691406 20.28125 -15.734375 C 21.863281 -13.773438 24.4375 -12.796875 28 -12.796875 C 31.5625 -12.796875 34.128906 -13.773438 35.703125 -15.734375 C 37.285156 -17.691406 38.078125 -21.175781 38.078125 -26.1875 L 38.078125 -62.09375 Z M 52.234375 -62.09375 "/></g></g></g><g fill="#ffffff" fill-opacity="1"><g transform="translate(537.855592, 132.000005)"><g><path d="M 18.671875 -62.09375 L 18.671875 0 L 4.515625 0 L 4.515625 -62.09375 Z M 18.671875 -62.09375 "/></g></g></g><g fill="#ffffff" fill-opacity="1"><g transform="translate(561.034993, 132.000005)"><g><path d="M 62.625 0 L 44.328125 0 L 29.65625 -21.15625 L 14.984375 0 L -2.5625 0 L 20.921875 -33.421875 L 1.359375 -62.09375 L 18.21875 -62.09375 L 29.65625 -45.15625 L 41.09375 -62.09375 L 58.703125 -62.09375 L 38.390625 -33.421875 Z M 62.625 0 "/></g></g></g><g clip-path="url(#10d5024fe9)"><path fill="#f7f7f7" d="M 446.96875 132.464844 L 623.710938 132.464844 L 623.710938 143.34375 L 446.96875 143.34375 Z M 446.96875 132.464844 " fill-opacity="1" fill-rule="nonzero"/></g></svg>